# Tiled2Unity generated file. Do not modify by hand.
# Wavefront file for 'field_mesh_0005.obj'

# Vertices (Count = 192)
v -608 -272 0
v -624 -272 0
v -624 -256 0
v -608 -256 0
v -592 -272 0
v -608 -272 0
v -608 -256 0
v -592 -256 0
v -624 -288 0
v -640 -288 0
v -640 -272 0
v -624 -272 0
v -608 -288 0
v -624 -288 0
v -624 -272 0
v -608 -272 0
v -592 -288 0
v -608 -288 0
v -608 -272 0
v -592 -272 0
v -576 -288 0
v -592 -288 0
v -592 -272 0
v -576 -272 0
v -624 -304 0
v -640 -304 0
v -640 -288 0
v -624 -288 0
v -608 -304 0
v -624 -304 0
v -624 -288 0
v -608 -288 0
v -592 -304 0
v -608 -304 0
v -608 -288 0
v -592 -288 0
v -576 -304 0
v -592 -304 0
v -592 -288 0
v -576 -288 0
v -640 -320 0
v -656 -320 0
v -656 -304 0
v -640 -304 0
v -624 -320 0
v -640 -320 0
v -640 -304 0
v -624 -304 0
v -608 -320 0
v -624 -320 0
v -624 -304 0
v -608 -304 0
v -592 -320 0
v -608 -320 0
v -608 -304 0
v -592 -304 0
v -576 -320 0
v -592 -320 0
v -592 -304 0
v -576 -304 0
v -560 -320 0
v -576 -320 0
v -576 -304 0
v -560 -304 0
v -640 -336 0
v -656 -336 0
v -656 -320 0
v -640 -320 0
v -624 -336 0
v -640 -336 0
v -640 -320 0
v -624 -320 0
v -608 -336 0
v -624 -336 0
v -624 -320 0
v -608 -320 0
v -592 -336 0
v -608 -336 0
v -608 -320 0
v -592 -320 0
v -576 -336 0
v -592 -336 0
v -592 -320 0
v -576 -320 0
v -560 -336 0
v -576 -336 0
v -576 -320 0
v -560 -320 0
v -640 -352 0
v -656 -352 0
v -656 -336 0
v -640 -336 0
v -624 -352 0
v -640 -352 0
v -640 -336 0
v -624 -336 0
v -608 -352 0
v -624 -352 0
v -624 -336 0
v -608 -336 0
v -592 -352 0
v -608 -352 0
v -608 -336 0
v -592 -336 0
v -576 -352 0
v -592 -352 0
v -592 -336 0
v -576 -336 0
v -560 -352 0
v -576 -352 0
v -576 -336 0
v -560 -336 0
v -640 -368 0
v -656 -368 0
v -656 -352 0
v -640 -352 0
v -624 -368 0
v -640 -368 0
v -640 -352 0
v -624 -352 0
v -608 -368 0
v -624 -368 0
v -624 -352 0
v -608 -352 0
v -592 -368 0
v -608 -368 0
v -608 -352 0
v -592 -352 0
v -576 -368 0
v -592 -368 0
v -592 -352 0
v -576 -352 0
v -560 -368 0
v -576 -368 0
v -576 -352 0
v -560 -352 0
v -640 -384 0
v -656 -384 0
v -656 -368 0
v -640 -368 0
v -624 -384 0
v -640 -384 0
v -640 -368 0
v -624 -368 0
v -608 -384 0
v -624 -384 0
v -624 -368 0
v -608 -368 0
v -592 -384 0
v -608 -384 0
v -608 -368 0
v -592 -368 0
v -576 -384 0
v -592 -384 0
v -592 -368 0
v -576 -368 0
v -560 -384 0
v -576 -384 0
v -576 -368 0
v -560 -368 0
v -640 -400 0
v -656 -400 0
v -656 -384 0
v -640 -384 0
v -640 -416 0
v -656 -416 0
v -656 -400 0
v -640 -400 0
v -576 -448 0
v -592 -448 0
v -592 -432 0
v -576 -432 0
v -672 -464 0
v -688 -464 0
v -688 -448 0
v -672 -448 0
v -576 -464 0
v -592 -464 0
v -592 -448 0
v -576 -448 0
v -672 -480 0
v -688 -480 0
v -688 -464 0
v -672 -464 0
v -624 -512 0
v -640 -512 0
v -640 -496 0
v -624 -496 0
v -624 -528 0
v -640 -528 0
v -640 -512 0
v -624 -512 0

# Texture cooridinates (Count = 72)
vt 0.3688017 0.2908745
vt 0.3853306 0.2908745
vt 0.3853306 0.3212928
vt 0.3688017 0.3212928
vt 0.3512397 0.2908745
vt 0.3677686 0.2908745
vt 0.3677686 0.3212928
vt 0.3512397 0.3212928
vt 0.3688017 0.2585551
vt 0.3853306 0.2585551
vt 0.3853306 0.2889734
vt 0.3688017 0.2889734
vt 0.3512397 0.2585551
vt 0.3677686 0.2585551
vt 0.3677686 0.2889734
vt 0.3512397 0.2889734
vt 0.3688017 0.2262357
vt 0.3853306 0.2262357
vt 0.3853306 0.256654
vt 0.3688017 0.256654
vt 0.3512397 0.2262357
vt 0.3677686 0.2262357
vt 0.3677686 0.256654
vt 0.3512397 0.256654
vt 0.01756198 0.8079848
vt 0.03409091 0.8079848
vt 0.03409091 0.838403
vt 0.01756198 0.838403
vt 0.3161157 0.2585551
vt 0.3326446 0.2585551
vt 0.3326446 0.2889734
vt 0.3161157 0.2889734
vt 0.3336777 0.2585551
vt 0.3502066 0.2585551
vt 0.3502066 0.2889734
vt 0.3336777 0.2889734
vt 0.7200413 0.7756654
vt 0.7365702 0.7756654
vt 0.7365702 0.8060837
vt 0.7200413 0.8060837
vt 0.2985537 0.2585551
vt 0.3150826 0.2585551
vt 0.3150826 0.2889734
vt 0.2985537 0.2889734
vt 0.3336777 0.2262357
vt 0.3502066 0.2262357
vt 0.3502066 0.256654
vt 0.3336777 0.256654
vt 0.3161157 0.2262357
vt 0.3326446 0.2262357
vt 0.3326446 0.256654
vt 0.3161157 0.256654
vt 0.6322314 0.8726236
vt 0.6487603 0.8726236
vt 0.6487603 0.9030418
vt 0.6322314 0.9030418
vt 0.2985537 0.2262357
vt 0.3150826 0.2262357
vt 0.3150826 0.256654
vt 0.2985537 0.256654
vt 0.08780992 0.4201521
vt 0.1043388 0.4201521
vt 0.1043388 0.4505703
vt 0.08780992 0.4505703
vt 0.2634298 0.6463878
vt 0.2799587 0.6463878
vt 0.2799587 0.6768061
vt 0.2634298 0.6768061
vt 0.2634298 0.6140684
vt 0.2799587 0.6140684
vt 0.2799587 0.6444867
vt 0.2634298 0.6444867

# Normal
vn 0 0 -1

# Mesh description
g field_mesh_0005

# Faces
f 1/1/1 2/2/1 3/3/1 4/4/1
f 5/5/1 6/6/1 7/7/1 8/8/1
f 9/1/1 10/2/1 11/3/1 12/4/1
f 13/9/1 14/10/1 15/11/1 16/12/1
f 17/13/1 18/14/1 19/15/1 20/16/1
f 21/5/1 22/6/1 23/7/1 24/8/1
f 25/9/1 26/10/1 27/11/1 28/12/1
f 29/17/1 30/18/1 31/19/1 32/20/1
f 33/21/1 34/22/1 35/23/1 36/24/1
f 37/13/1 38/14/1 39/15/1 40/16/1
f 41/25/1 42/26/1 43/27/1 44/28/1
f 45/17/1 46/18/1 47/19/1 48/20/1
f 49/29/1 50/30/1 51/31/1 52/32/1
f 53/29/1 54/30/1 55/31/1 56/32/1
f 57/21/1 58/22/1 59/23/1 60/24/1
f 61/25/1 62/26/1 63/27/1 64/28/1
f 65/25/1 66/26/1 67/27/1 68/28/1
f 69/33/1 70/34/1 71/35/1 72/36/1
f 73/29/1 74/30/1 75/31/1 76/32/1
f 77/37/1 78/38/1 79/39/1 80/40/1
f 81/41/1 82/42/1 83/43/1 84/44/1
f 85/25/1 86/26/1 87/27/1 88/28/1
f 89/25/1 90/26/1 91/27/1 92/28/1
f 93/45/1 94/46/1 95/47/1 96/48/1
f 97/49/1 98/50/1 99/51/1 100/52/1
f 101/53/1 102/54/1 103/55/1 104/56/1
f 105/57/1 106/58/1 107/59/1 108/60/1
f 109/25/1 110/26/1 111/27/1 112/28/1
f 113/25/1 114/26/1 115/27/1 116/28/1
f 117/25/1 118/26/1 119/27/1 120/28/1
f 121/25/1 122/26/1 123/27/1 124/28/1
f 125/61/1 126/62/1 127/63/1 128/64/1
f 129/25/1 130/26/1 131/27/1 132/28/1
f 133/25/1 134/26/1 135/27/1 136/28/1
f 137/25/1 138/26/1 139/27/1 140/28/1
f 141/25/1 142/26/1 143/27/1 144/28/1
f 145/25/1 146/26/1 147/27/1 148/28/1
f 149/25/1 150/26/1 151/27/1 152/28/1
f 153/25/1 154/26/1 155/27/1 156/28/1
f 157/25/1 158/26/1 159/27/1 160/28/1
f 161/65/1 162/66/1 163/67/1 164/68/1
f 165/69/1 166/70/1 167/71/1 168/72/1
f 169/65/1 170/66/1 171/67/1 172/68/1
f 173/65/1 174/66/1 175/67/1 176/68/1
f 177/69/1 178/70/1 179/71/1 180/72/1
f 181/69/1 182/70/1 183/71/1 184/72/1
f 185/65/1 186/66/1 187/67/1 188/68/1
f 189/69/1 190/70/1 191/71/1 192/72/1

